<svg xmlns="http://www.w3.org/2000/svg" viewBox="0 0 24 24"><path d="M12 24a.5.5 0 0 1-.5-.5v-5.207a.5.5 0 0 1 1 0V23.5a.5.5 0 0 1-.5.5z"/><path d="M18.5 20a.512.512 0 0 1-.18-.033 17.573 17.573 0 0 0-12.641 0 .5.5 0 0 1-.638-.664l1.165-2.719a.498.498 0 0 0-.191-.619l-4.783-3.043a.498.498 0 0 1 .044-.869l1.494-.747-1.686-2.529a.5.5 0 0 1 .562-.755l2.603.795.808-1.548a.504.504 0 0 1 .72-.185l2.04 1.36-.81-4.862a.5.5 0 0 1 .751-.511L9.772 4.28 11.543.297c.161-.361.753-.361.914 0l1.771 3.983 2.015-1.209a.5.5 0 0 1 .751.511l-.81 4.862 2.04-1.36a.498.498 0 0 1 .72.185l.808 1.548 2.603-.795a.5.5 0 0 1 .562.756l-1.686 2.529 1.494.747a.501.501 0 0 1 .045.869l-4.783 3.043a.497.497 0 0 0-.191.619l1.165 2.719A.5.5 0 0 1 18.5 20zM2.514 12.552l4.038 2.569c.624.397.865 1.178.573 1.857l-.718 1.675a18.569 18.569 0 0 1 11.187 0l-.718-1.675a1.493 1.493 0 0 1 .573-1.856l4.038-2.569-1.21-.605a.5.5 0 0 1-.193-.725l1.224-1.835-1.662.507a.497.497 0 0 1-.589-.247l-.742-1.423-1.577 1.051c-.338.224-.759.227-1.098.007s-.51-.604-.443-1.004l.632-3.793-1.572.943a.502.502 0 0 1-.714-.225L12 1.731l-1.543 3.472a.499.499 0 0 1-.714.225l-1.572-.942.632 3.794a.985.985 0 0 1-.443 1.003.988.988 0 0 1-1.098-.007L5.686 8.225l-.743 1.423a.499.499 0 0 1-.589.247l-1.662-.508 1.224 1.835a.498.498 0 0 1-.193.725l-1.209.605z"/></svg>