<svg xmlns="http://www.w3.org/2000/svg" data-name="Layer 1" viewBox="0 0 128 128"><path d="M64.003 58a2.002 2.002 0 0 0-1.742 1.017l-5.17 9.163a7.696 7.696 0 0 0-.052 7.81 8.052 8.052 0 0 0 13.928 0 7.681 7.681 0 0 0-.034-7.78l-5.188-9.193A2.002 2.002 0 0 0 64.003 58zm3.49 16.005a4.052 4.052 0 0 1-6.981 0 3.708 3.708 0 0 1 .044-3.827l3.447-6.109 3.465 6.14a3.692 3.692 0 0 1 .026 3.796zm16.281-.929a2.002 2.002 0 0 0-3.55 0L66.39 99.606a19.816 19.816 0 0 0 .37 19.521 17.524 17.524 0 0 0 30.478 0 19.8 19.8 0 0 0 .387-19.49zm10.022 44.007a13.52 13.52 0 0 1-23.595 0 15.613 15.613 0 0 1-.277-15.598L81.999 78.33l12.092 23.188a15.597 15.597 0 0 1-.295 15.566z"/><path d="M79.176 113.385c-2.866-2.091-2.11-5.763-2.07-5.942a2.002 2.002 0 0 0-3.902-.898c-.06.26-1.427 6.393 3.61 10.07a2 2 0 1 0 2.362-3.23zM47.122 70.408a1.77 1.77 0 0 0-2.583.374c-.116.163-11.472 16.487 2.183 34.495a1.798 1.798 0 0 0 1.435.73 1.768 1.768 0 0 0 1.158-.436 2.051 2.051 0 0 0 .275-2.762c-11.793-15.553-2.526-29.07-2.115-29.652a2.05 2.05 0 0 0-.353-2.75z"/><path d="M67.341 126.156q-.531-.5-1.033-1.037l-.005-.005q-.5-.537-.97-1.11L65.33 124H52.507a4.07 4.07 0 0 1-2.946-1.29 98.899 98.899 0 0 1-2.88-3.189c-8.047-9.313-12.853-18.728-14.286-27.983a36.126 36.126 0 0 1 7.814-27.983c1.538-1.917 3.268-3.73 5.1-5.65 3.902-4.092 7.938-8.323 10.222-13.803 1.79-4.294 2.036-8.805 2.156-13.834 0 0 .09-3.638.015-5.257h12.619c-.318 6.243-.376 13.035 2.148 19.09 2.285 5.482 6.32 9.713 10.225 13.805 1.83 1.92 3.56 3.732 5.098 5.649a36.514 36.514 0 0 1 8.176 24.267l3.25 6.239q.192-.956.34-1.912a40.137 40.137 0 0 0-8.646-31.098c-.153-.19-.315-.375-.471-.563a23.725 23.725 0 0 0 1.564-8.48c0-11.192-7.69-20.537-17.836-22.579.029-2.195.153-4.408.278-6.596l.028-.495c.291-5.134 1.253-9.177 4.997-12.23a2.988 2.988 0 0 0 1.097-2.034 2.928 2.928 0 0 0-.661-2.167v-.001a2.97 2.97 0 0 0-3.295-.888C66.68 8.6 54.352 1.623 54.23 1.552a2.502 2.502 0 0 0-.144-.075C45.122-2.756 40.958 3.26 39.894 5.205A2.992 2.992 0 0 0 41.42 9.43a20.761 20.761 0 0 1 10.684 9.075c1.795 3.22 1.695 7.253 1.597 11.154l-.011.514c-.112 4.617-.328 8.737-1.85 12.39-2 4.795-5.775 8.754-9.427 12.582-1.808 1.896-3.678 3.857-5.323 5.906a40.133 40.133 0 0 0-8.648 31.098c1.55 10.008 6.668 20.097 15.213 29.986a103.407 103.407 0 0 0 2.994 3.317A8.087 8.087 0 0 0 52.507 128h17.078a21.889 21.889 0 0 1-2.243-1.844Zm20.663-74.148a19.758 19.758 0 0 1-.656 4.998 293.42 293.42 0 0 0-1.76-1.86c-3.651-3.828-7.427-7.787-9.427-12.583a27.727 27.727 0 0 1-1.9-8.983 18.83 18.83 0 0 1 13.743 18.428ZM44.011 6.181c1.402-1.848 3.903-3.17 8.298-1.12 1.115.63 11.651 6.373 21.988 4.669-2.647 3.463-3.44 7.509-3.737 11.282H57.22a15.74 15.74 0 0 0-1.622-4.454A24.448 24.448 0 0 0 44.011 6.181Z"/></svg>