<svg xmlns="http://www.w3.org/2000/svg" viewBox="0 0 32 32"><path d="M13.6 23.9c-1.4 0-2.8-.5-3.9-1.6-.2-.2-.2-.5 0-.7 1-1 2.4-1.6 3.9-1.6s2.9.6 3.9 1.6c.2.2.2.5 0 .7-1 1.1-2.5 1.6-3.9 1.6zM10.9 22c1.6 1.3 3.9 1.3 5.6 0-1.7-1.3-4.1-1.3-5.6 0z"/><path d="M10.1 22.5c-.1 0-.3-.1-.4-.1-1-1-1.6-2.4-1.6-3.9s.6-2.9 1.6-3.9c.2-.2.5-.2.7 0 2.1 2.1 2.1 5.6 0 7.8 0 0-.2.1-.3.1zm0-6.9c-.6.8-1 1.8-1 2.8s.3 2 1 2.8c1.3-1.6 1.3-3.9 0-5.6zM16.5 21.1c-1.5 0-2.9-.6-3.9-1.6-.2-.2-.2-.5 0-.7 2.1-2.1 5.6-2.1 7.8 0 .1.1.1.2.1.4s-.1.3-.1.4c-1.1.9-2.5 1.5-3.9 1.5zm-2.8-2c1.6 1.3 4 1.3 5.6 0-1.7-1.3-4-1.3-5.6 0z"/><path d="M12.9 19.6c-.1 0-.3 0-.4-.1-1-1-1.6-2.4-1.6-3.9s.6-2.9 1.6-3.9c.1-.1.2-.1.4-.1.1 0 .3.1.4.1 2.1 2.1 2.1 5.6 0 7.8-.1.1-.2.1-.4.1zm0-6.8c-.6.8-1 1.8-1 2.8s.3 2 1 2.8c1.3-1.7 1.3-4 0-5.6zM19.3 18.3c-1.4 0-2.8-.5-3.9-1.6-.1-.1-.1-.2-.1-.4s.1-.3.1-.4c1-1 2.4-1.6 3.9-1.6s2.9.6 3.9 1.6c.2.2.2.5 0 .7-1.1 1.1-2.5 1.7-3.9 1.7zm-2.8-2c1.6 1.3 3.9 1.3 5.6 0-1.6-1.3-4-1.3-5.6 0z"/><path d="M15.8 16.8c-.1 0-.3-.1-.4-.1-2.1-2.1-2.1-5.6 0-7.8.2-.2.5-.2.7 0 2.1 2.1 2.1 5.6 0 7.8-.1 0-.2.1-.3.1zm0-6.8c-1.3 1.6-1.3 3.9 0 5.6 1.2-1.7 1.2-4 0-5.6zM22.1 15.4c-1.4 0-2.8-.5-3.9-1.6-.2-.2-.2-.5 0-.7 1-1 2.4-1.6 3.9-1.6s2.9.6 3.9 1.6c.2.2.2.5 0 .7-1.1 1.1-2.5 1.6-3.9 1.6zm-2.8-1.9c1.6 1.3 3.9 1.3 5.6 0-1.6-1.3-4-1.3-5.6 0z"/><path d="M18.6 14c-.1 0-.3-.1-.4-.1-1-1-1.6-2.4-1.6-3.9s.6-2.9 1.6-3.9c.2-.2.5-.2.7 0 2.1 2.1 2.1 5.6 0 7.8 0 0-.2.1-.3.1zm0-6.9c-.6.8-1 1.8-1 2.8s.3 2 1 2.8c1.3-1.6 1.3-3.9 0-5.6z"/><path d="M19.9 12.6c-.3 0-.5-.2-.5-.5 0-3.1 2.5-5.6 5.6-5.6.3 0 .5.2.5.5 0 3.1-2.5 5.6-5.6 5.6zm4.6-5.1c-2.1.2-3.8 1.9-4.1 4.1 2.1-.3 3.8-2 4.1-4.1z"/><path d="M23.8 10.8c-.1 0-.3 0-.4-.1-.2-.2-.2-.5 0-.7L28 5.3c.2-.2.5-.2.7 0s.2.5 0 .7l-4.6 4.6c-.1.2-.2.2-.3.2zM21.6 8.7c-.1 0-.3 0-.4-.1-.2-.2-.2-.5 0-.7l4.6-4.6c.2-.2.5-.2.7 0s.2.5 0 .7L22 8.6c-.1.1-.2.1-.4.1zM24.9 13.3c-.1 0-.3 0-.4-.1-.2-.2-.2-.5 0-.7L28 9c.2-.2.5-.2.7 0s.2.5 0 .7l-3.5 3.5c-.1 0-.2.1-.3.1zM19.2 7.6c-.1 0-.3 0-.4-.1-.2-.2-.2-.5 0-.7l3.5-3.5c.2-.2.5-.2.7 0s.2.5 0 .7l-3.5 3.5c0 .1-.2.1-.3.1zM4.6 28.9c-.4 0-.8-.1-1.1-.4-.6-.6-.6-1.5 0-2.1l5.6-5.6c.2-.2.5-.2.7 0s.2.5 0 .7l-5.6 5.6c-.2.2-.2.5 0 .7s.5.2.7 0l5.6-5.6c.2-.2.5-.2.7 0s.2.5 0 .7l-5.6 5.6c-.2.3-.6.4-1 .4z"/></svg>